<?xml version="1.0" standalone="no"?>
<!DOCTYPE svg PUBLIC "-//W3C//DTD SVG 20010904//EN"
 "http://www.w3.org/TR/2001/REC-SVG-20010904/DTD/svg10.dtd">
<svg version="1.0" xmlns="http://www.w3.org/2000/svg"
 width="700.000000pt" height="700.000000pt" viewBox="0 0 700.000000 700.000000"
 preserveAspectRatio="xMidYMid meet">
<metadata>
Created by potrace 1.11, written by Peter Selinger 2001-2013
</metadata>
<g transform="translate(0.000000,700.000000) scale(0.100000,-0.100000)"
fill="#000000" stroke="none">
<path d="M3239 6996 c-2 -2 -40 -6 -84 -10 -44 -4 -93 -9 -110 -11 -16 -3 -48
-7 -70 -10 -259 -35 -561 -117 -819 -222 -129 -52 -420 -195 -436 -214 -3 -3
-17 -12 -32 -20 -95 -50 -287 -183 -428 -298 -138 -111 -395 -369 -501 -501
-85 -106 -209 -274 -209 -283 0 -3 -22 -38 -49 -79 -78 -118 -175 -305 -256
-494 -66 -154 -161 -444 -178 -544 -3 -14 -10 -43 -15 -65 -11 -39 -15 -62
-27 -139 -4 -21 -9 -48 -11 -60 -3 -11 -8 -60 -11 -108 l-6 -88 1214 3 1214 2
5 290 c4 224 8 296 19 315 22 38 72 78 107 85 18 3 440 6 939 6 l907 0 44 -26
c28 -17 52 -41 66 -68 l21 -42 1 -905 c0 -498 -3 -917 -7 -932 -10 -38 -63
-96 -105 -113 -29 -13 -171 -15 -941 -14 -975 1 -942 -1 -1000 52 -48 44 -51
67 -51 367 l0 280 -1216 0 -1217 0 6 -82 c4 -46 9 -94 12 -108 3 -14 7 -41 10
-60 10 -92 76 -352 127 -504 74 -223 224 -547 323 -701 139 -217 236 -349 357
-489 57 -66 248 -259 313 -316 371 -329 841 -593 1310 -735 124 -38 290 -79
360 -89 22 -4 47 -8 55 -11 35 -10 243 -37 335 -43 210 -15 546 -6 715 18 41
5 93 13 115 16 22 3 47 7 55 9 8 2 31 7 50 10 187 29 532 134 730 222 437 194
774 424 1100 752 69 69 148 153 175 186 28 33 52 62 55 65 37 35 260 352 260
369 0 5 4 11 8 13 19 8 178 308 237 448 49 114 128 333 140 385 2 11 14 51 25
90 25 86 66 284 80 387 6 42 12 85 14 95 20 105 28 543 13 713 -19 218 -63
462 -117 645 -11 39 -22 77 -24 86 -2 8 -16 51 -31 95 -104 304 -259 612 -430
859 -27 39 -58 84 -69 100 -12 17 -24 32 -27 35 -3 3 -23 28 -44 55 -73 97
-140 172 -289 320 -343 341 -719 588 -1171 770 -140 56 -395 136 -511 159 -10
3 -53 11 -94 20 -65 13 -120 22 -335 51 -46 7 -590 17 -596 11z"/>
</g>
</svg>
